<svg xmlns="http://www.w3.org/2000/svg" width="1080" height="1080" fill="none" viewBox="0 0 1080 1080"><path fill="#6D6D6D" d="M196 282.25L207.5 280.25L308.244 259.413L883.75 156V166.396L836.748 235.885L785.919 751.308L400.5 1027.75L391.5 1023.25L387 1020.75L361.805 992.605L308.244 492.502L196.75 303.186L196 282.25Z"/><path fill="#EEE" d="M676.612 46L196 282.25L406.075 403L883.75 156.266L676.612 46Z"/><path fill="#565656" d="M710.508 531.55L883.75 636.509L868.978 666.828L522.003 822L430.181 772.146L710.508 531.55Z"/><path fill="#565656" d="M636.135 387L749.325 463.057L744.953 475.094L458.616 691.107L328.75 561.88L636.135 387Z"/><path fill="#fff" d="M196.75 295.25L400.75 413.362V552.68V1028L275.5 976.097V478.75L196.75 429.25V295.25Z"/><path fill="#fff" d="M410.75 552.982V413.569L883.75 167V547.515L536.519 730.119V812.673L883.75 637.177V784.244L410.75 1033V643.737L749.232 463.867V381.313L410.75 552.982Z"/><path fill="#fff" d="M196.75 295.25L400.75 413.362V1028L275.5 976.097V478.75L196.75 429.25V295.25Z"/><path fill="#fff" d="M410.75 552.982V413.569L883.75 167V547.515L536.519 730.119V812.673L883.75 637.177V784.244L410.75 1033V643.737L749.232 463.867V381.313L410.75 552.982Z"/><path stroke="#153256" stroke-width="12" d="M196.75 295.25L400.75 413.362V1028L275.5 976.097V478.75L196.75 429.25V295.25Z"/><path stroke="#153256" stroke-width="12" d="M410.75 552.982V413.569L883.75 167V547.515L536.519 730.119V812.673L883.75 637.177V784.244L410.75 1033V643.737L749.232 463.867V381.313L410.75 552.982Z"/></svg>